name Walk3_EMG.mot
datacolumns 17
datarows 22
range 2.43600000 2.45700000
endheader
                time	            vasmed_r	            vaslat_r	            recfem_r	               gra_r	               sar_r	            tibant_r	           perlong_r	            addmag_r	           semimem_r	          bicfemlh_r	            gasmed_r	            gaslat_r	               sol_r	               tfl_r	              gmed_r	              gmax_r	
          2.43600000	          0.01500040	          0.00000000	          0.00000000	          0.00000000	          0.03752171	          0.02472720	          0.00000000	          0.00000000	          0.00000000	          0.00000000	          0.00000000	          0.00000000	          0.00000000	          0.00000000	          0.00000000	          0.00000000	
          2.43700000	          0.01500061	          0.00000000	          0.00000000	          0.00000000	          0.03752298	          0.02472723	          0.00000000	          0.00000000	          0.00000000	          0.00000000	          0.00000000	          0.00000000	          0.00000000	          0.00000000	          0.00000000	          0.00000000	
          2.43800000	          0.01500158	          0.00000000	          0.00000000	          0.00000000	          0.03752852	          0.02472749	          0.00000000	          0.00000000	          0.00000000	          0.00000000	          0.00000000	          0.00000000	          0.00000000	          0.00000000	          0.00000000	          0.00000000	
          2.43900000	          0.01500483	          0.00000000	          0.00000000	          0.00000000	          0.03754531	          0.02472858	          0.00000000	          0.00000000	          0.00000000	          0.00000000	          0.00000000	          0.00000000	          0.00000000	          0.00000000	          0.00000000	          0.00000000	
          2.44000000	          0.01501325	          0.00000000	          0.00000000	          0.00000000	          0.03758517	          0.02473182	          0.00000000	          0.00000000	          0.00000000	          0.00000000	          0.00000000	          0.00000000	          0.00000000	          0.00000000	          0.00000000	          0.00000000	
          2.44100000	          0.01503098	          0.00000000	          0.00000000	          0.00000000	          0.03766487	          0.02473922	          0.00000000	          0.00000000	          0.00000000	          0.00000000	          0.00000000	          0.00000000	          0.00000000	          0.00000000	          0.00000000	          0.00000000	
          2.44200000	          0.01506314	          0.00000000	          0.00000000	          0.00000000	          0.03780585	          0.02475316	          0.00000000	          0.00000000	          0.00000000	          0.00000000	          0.00000000	          0.00000000	          0.00000000	          0.00000000	          0.00000000	          0.00000000	
          2.44300000	          0.01511597	          0.00000000	          0.00000000	          0.00000000	          0.03803358	          0.02477623	          0.00000000	          0.00000000	          0.00000000	          0.00000000	          0.00000000	          0.00000000	          0.00000000	          0.00000000	          0.00000000	          0.00000000	
          2.44400000	          0.01519702	          0.00000000	          0.00000000	          0.00000000	          0.03837637	          0.02481202	          0.00000000	          0.00000000	          0.00000000	          0.00000000	          0.00000000	          0.00000000	          0.00000000	          0.00000000	          0.00000000	          0.00000000	
          2.44500000	          0.01531439	          0.00000000	          0.00000000	          0.00000000	          0.03886377	          0.02486567	          0.00000000	          0.00000000	          0.00000000	          0.00000000	          0.00000000	          0.00000000	          0.00000000	          0.00000000	          0.00000000	          0.00000000	
          2.44600000	          0.01547569	          0.00000000	          0.00000000	          0.00000000	          0.03952469	          0.02494367	          0.00000000	          0.00000000	          0.00000000	          0.00000000	          0.00000000	          0.00000000	          0.00000000	          0.00000000	          0.00000000	          0.00000000	
          2.44700000	          0.01568750	          0.00015821	          0.00016527	          0.00020090	          0.04038478	          0.02505353	          0.00003380	          0.00024483	          0.00002696	          0.00003154	          0.00309336	          0.00045466	          0.00050230	          0.00029145	          0.00002324	          0.00003496	
          2.44800000	          0.01595509	          0.00055487	          0.00046273	          0.00054349	          0.04146481	          0.02520375	          0.00066668	          0.00083776	          0.00053843	          0.00017451	          0.00749896	          0.00199272	          0.00194765	          0.00103411	          0.00025426	          0.00036249	
          2.44900000	          0.01628255	          0.00103456	          0.00081446	          0.00094677	          0.04278103	          0.02540350	          0.00149107	          0.00155400	          0.00118840	          0.00035205	          0.01274399	          0.00389227	          0.00371433	          0.00192665	          0.00054638	          0.00077434	
          2.45000000	          0.01667291	          0.00160314	          0.00122442	          0.00141471	          0.04434662	          0.02566199	          0.00255487	          0.00240575	          0.00199822	          0.00056993	          0.01886620	          0.00619000	          0.00582567	          0.00298017	          0.00090829	          0.00128001	
          2.45100000	          0.01712828	          0.00226529	          0.00169738	          0.00195136	          0.04617278	          0.02598813	          0.00390849	          0.00340290	          0.00298916	          0.00083390	          0.02589077	          0.00891715	          0.00829989	          0.00420416	          0.00134788	          0.00188965	
          2.45200000	          0.01764985	          0.00302466	          0.00223874	          0.00256085	          0.04826954	          0.02639070	          0.00560654	          0.00455252	          0.00418068	          0.00114914	          0.03382715	          0.01210228	          0.01115085	          0.00560545	          0.00187206	          0.00261272	
          2.45300000	          0.01823785	          0.00388453	          0.00285379	          0.00324703	          0.05064610	          0.02687855	          0.00771310	          0.00585936	          0.00558931	          0.00151998	          0.04267000	          0.01577319	          0.01438932	          0.00718902	          0.00248714	          0.00345701	
          2.45400000	          0.01889166	          0.00484850	          0.00354758	          0.00401371	          0.05331091	          0.02746033	          0.01030324	          0.00732693	          0.00722817	          0.00194985	          0.05240183	          0.01995523	          0.01802374	          0.00895984	          0.00319940	          0.00442853	
          2.45500000	          0.01961002	          0.00592080	          0.00432478	          0.00486511	          0.05627156	          0.02814379	          0.01345772	          0.00895787	          0.00910748	          0.00244153	          0.06299479	          0.02466736	          0.02205967	          0.01092445	          0.00401636	          0.00553287	
          2.45600000	          0.02039113	          0.00710560	          0.00518924	          0.00580594	          0.05953441	          0.02893550	          0.01725357	          0.01075431	          0.01123512	          0.00299725	          0.07441205	          0.02992059	          0.02649914	          0.01309103	          0.00494763	          0.00677725	
          2.45700000	          0.02123279	          0.00840612	          0.00614449	          0.00684104	          0.06310426	          0.02984075	          0.02175651	          0.01271908	          0.01361687	          0.00361900	          0.08660900	          0.03571943	          0.03134077	          0.01546742	          0.00600346	          0.00817055	
